<svg width="262" height="262" viewBox="0 0 262 262" fill="none" xmlns="http://www.w3.org/2000/svg">
<path fill-rule="evenodd" clip-rule="evenodd" d="M16.375 114.625L78.61 23.5679C91.0547 8.63441 109.489 0 128.929 0H131V65.5L196.5 81.875L245.625 163.75L232.32 183.708C220.172 201.93 199.721 212.875 177.821 212.875H147.375L114.625 262H81.875L16.375 114.625ZM163.75 147.375C172.794 147.375 180.125 140.044 180.125 131C180.125 121.956 172.794 114.625 163.75 114.625C154.706 114.625 147.375 121.956 147.375 131C147.375 140.044 154.706 147.375 163.75 147.375Z" fill="#0072DB"/>
<path d="M163.75 7.62875V39.9296L196.5 48.1171V0H194.429C183.605 0 173.09 2.67733 163.75 7.62875Z" fill="#0072DB"/>
</svg>
