<svg width="385" height="385" viewBox="0 0 385 385" fill="none" xmlns="http://www.w3.org/2000/svg">
<path fill-rule="evenodd" clip-rule="evenodd" d="M24.0625 168.438L115.515 34.6322C133.802 12.688 160.891 0 189.456 0H192.5V96.25L288.75 120.312L360.938 240.625L341.387 269.952C323.535 296.729 293.483 312.812 261.302 312.812H216.562L168.438 385H120.312L24.0625 168.438ZM240.625 216.562C253.915 216.562 264.688 205.789 264.688 192.5C264.688 179.211 253.915 168.438 240.625 168.438C227.336 168.438 216.562 179.211 216.562 192.5C216.562 205.789 227.336 216.562 240.625 216.562Z" fill="#006BFA"/>
<path d="M240.625 11.2102V58.6752L288.75 70.7064V0H285.706C269.801 0 254.35 3.93424 240.625 11.2102Z" fill="#006BFA"/>
</svg>
